<mxfile host="app.diagrams.net" agent="Mozilla/5.0 (Windows NT 10.0; Win64; x64) AppleWebKit/537.36 (KHTML, like Gecko) Chrome/140.0.0.0 Safari/537.36" version="28.2.3">
  <diagram name="Page-1" id="SRsdh43xM_Y8P20Z0Rma">
    <mxGraphModel grid="1" page="1" gridSize="10" guides="1" tooltips="1" connect="1" arrows="1" fold="1" pageScale="1" pageWidth="850" pageHeight="1100" math="0" shadow="0">
      <root>
        <mxCell id="0" />
        <mxCell id="1" parent="0" />
        <mxCell id="dDqPs8dIwind9jrdzAwR-1" value="&lt;font style=&quot;font-size: 18px;&quot;&gt;Đăng nhập&amp;nbsp;&lt;/font&gt;" style="ellipse;whiteSpace=wrap;html=1;" vertex="1" parent="1">
          <mxGeometry x="100" y="-250" width="140" height="80" as="geometry" />
        </mxCell>
        <mxCell id="dDqPs8dIwind9jrdzAwR-2" value="Actor" style="shape=umlActor;verticalLabelPosition=bottom;verticalAlign=top;html=1;outlineConnect=0;" vertex="1" parent="1">
          <mxGeometry x="280" y="-260" width="30" height="60" as="geometry" />
        </mxCell>
        <mxCell id="h9x3qLDGoQAYXnLkS7vb-2" value="&lt;span style=&quot;font-size: 18px;&quot;&gt;Đăng ký tài khoản&amp;nbsp;&lt;/span&gt;" style="ellipse;whiteSpace=wrap;html=1;" vertex="1" parent="1">
          <mxGeometry x="75" y="-370" width="140" height="80" as="geometry" />
        </mxCell>
        <mxCell id="h9x3qLDGoQAYXnLkS7vb-3" value="&lt;span style=&quot;font-size: 18px;&quot;&gt;Đăng xuất&amp;nbsp;&lt;/span&gt;" style="ellipse;whiteSpace=wrap;html=1;" vertex="1" parent="1">
          <mxGeometry x="400" y="-370" width="140" height="80" as="geometry" />
        </mxCell>
        <mxCell id="h9x3qLDGoQAYXnLkS7vb-4" value="&lt;span style=&quot;font-size: 18px;&quot;&gt;Đổi mật khẩu&lt;/span&gt;" style="ellipse;whiteSpace=wrap;html=1;" vertex="1" parent="1">
          <mxGeometry x="240" y="-370" width="140" height="80" as="geometry" />
        </mxCell>
        <mxCell id="h9x3qLDGoQAYXnLkS7vb-10" value="&lt;span style=&quot;font-size: 18px;&quot;&gt;Cập nhật trạng thái vận chuyển&amp;nbsp;&lt;/span&gt;" style="ellipse;whiteSpace=wrap;html=1;" vertex="1" parent="1">
          <mxGeometry x="420" y="-30" width="155" height="80" as="geometry" />
        </mxCell>
        <mxCell id="h9x3qLDGoQAYXnLkS7vb-11" value="&lt;span style=&quot;font-size: 18px;&quot;&gt;Tạo đơn hàng&lt;/span&gt;" style="ellipse;whiteSpace=wrap;html=1;" vertex="1" parent="1">
          <mxGeometry x="400" y="-270" width="140" height="80" as="geometry" />
        </mxCell>
        <mxCell id="h9x3qLDGoQAYXnLkS7vb-12" value="&lt;span style=&quot;font-size: 18px;&quot;&gt;Thống kế doanh thu &amp;amp; khách hàng&lt;/span&gt;" style="ellipse;whiteSpace=wrap;html=1;" vertex="1" parent="1">
          <mxGeometry x="120" y="-110" width="210" height="80" as="geometry" />
        </mxCell>
        <mxCell id="h9x3qLDGoQAYXnLkS7vb-13" value="&lt;span style=&quot;font-size: 18px;&quot;&gt;Hỗ trợ chăm sóc khách hàng&lt;/span&gt;" style="ellipse;whiteSpace=wrap;html=1;" vertex="1" parent="1">
          <mxGeometry x="240" y="90" width="170" height="80" as="geometry" />
        </mxCell>
        <mxCell id="h9x3qLDGoQAYXnLkS7vb-14" value="&lt;span style=&quot;font-size: 18px;&quot;&gt;Gửi thông báo nhắc nhở&amp;nbsp;&lt;/span&gt;" style="ellipse;whiteSpace=wrap;html=1;" vertex="1" parent="1">
          <mxGeometry x="250" y="-10" width="130" height="80" as="geometry" />
        </mxCell>
        <mxCell id="h9x3qLDGoQAYXnLkS7vb-15" value="Extends" style="endArrow=block;endSize=16;endFill=0;html=1;rounded=0;fontFamily=Helvetica;fontSize=12;fontColor=default;" edge="1" parent="1" source="h9x3qLDGoQAYXnLkS7vb-2" target="dDqPs8dIwind9jrdzAwR-1">
          <mxGeometry width="160" relative="1" as="geometry">
            <mxPoint x="70" y="-240" as="sourcePoint" />
            <mxPoint x="230" y="-240" as="targetPoint" />
          </mxGeometry>
        </mxCell>
        <mxCell id="h9x3qLDGoQAYXnLkS7vb-18" value="&lt;span style=&quot;font-size: 18px;&quot;&gt;Thống kê theo ngày&lt;/span&gt;" style="ellipse;whiteSpace=wrap;html=1;" vertex="1" parent="1">
          <mxGeometry x="-5" y="-10" width="105" height="80" as="geometry" />
        </mxCell>
        <mxCell id="h9x3qLDGoQAYXnLkS7vb-19" value="&lt;span style=&quot;font-size: 18px;&quot;&gt;Thống kê theo tháng&lt;/span&gt;" style="ellipse;whiteSpace=wrap;html=1;" vertex="1" parent="1">
          <mxGeometry x="-30" y="-110" width="110" height="80" as="geometry" />
        </mxCell>
        <mxCell id="h9x3qLDGoQAYXnLkS7vb-20" value="&lt;span style=&quot;font-size: 18px;&quot;&gt;Thống kê theo năm&lt;/span&gt;" style="ellipse;whiteSpace=wrap;html=1;" vertex="1" parent="1">
          <mxGeometry x="-10" y="-210" width="110" height="80" as="geometry" />
        </mxCell>
        <mxCell id="h9x3qLDGoQAYXnLkS7vb-22" value="Actor" style="shape=umlActor;verticalLabelPosition=bottom;verticalAlign=top;html=1;outlineConnect=0;" vertex="1" parent="1">
          <mxGeometry x="165" y="-10" width="30" height="60" as="geometry" />
        </mxCell>
        <mxCell id="h9x3qLDGoQAYXnLkS7vb-30" value="" style="endArrow=open;endFill=1;endSize=12;html=1;rounded=0;fontFamily=Helvetica;fontSize=12;fontColor=default;entryX=0.462;entryY=1.005;entryDx=0;entryDy=0;entryPerimeter=0;exitX=0.75;exitY=0.1;exitDx=0;exitDy=0;exitPerimeter=0;" edge="1" parent="1" source="h9x3qLDGoQAYXnLkS7vb-22" target="h9x3qLDGoQAYXnLkS7vb-12">
          <mxGeometry width="160" relative="1" as="geometry">
            <mxPoint x="170" y="19.519999999999982" as="sourcePoint" />
            <mxPoint x="330" y="19.519999999999982" as="targetPoint" />
          </mxGeometry>
        </mxCell>
        <mxCell id="h9x3qLDGoQAYXnLkS7vb-31" value="" style="endArrow=open;endFill=1;endSize=12;html=1;rounded=0;fontFamily=Helvetica;fontSize=12;fontColor=default;exitX=0.75;exitY=0.1;exitDx=0;exitDy=0;exitPerimeter=0;entryX=0.5;entryY=1;entryDx=0;entryDy=0;" edge="1" parent="1" source="dDqPs8dIwind9jrdzAwR-2" target="h9x3qLDGoQAYXnLkS7vb-4">
          <mxGeometry width="160" relative="1" as="geometry">
            <mxPoint x="245" y="-251.11" as="sourcePoint" />
            <mxPoint x="405" y="-251.11" as="targetPoint" />
          </mxGeometry>
        </mxCell>
        <mxCell id="h9x3qLDGoQAYXnLkS7vb-33" value="" style="endArrow=open;endFill=1;endSize=12;html=1;rounded=0;fontFamily=Helvetica;fontSize=12;fontColor=default;exitX=0.75;exitY=0.1;exitDx=0;exitDy=0;exitPerimeter=0;entryX=0;entryY=1;entryDx=0;entryDy=0;" edge="1" parent="1" source="dDqPs8dIwind9jrdzAwR-2" target="h9x3qLDGoQAYXnLkS7vb-3">
          <mxGeometry width="160" relative="1" as="geometry">
            <mxPoint x="313" y="-224" as="sourcePoint" />
            <mxPoint x="310" y="-270" as="targetPoint" />
          </mxGeometry>
        </mxCell>
        <mxCell id="h9x3qLDGoQAYXnLkS7vb-34" value="" style="endArrow=open;endFill=1;endSize=12;html=1;rounded=0;fontFamily=Helvetica;fontSize=12;fontColor=default;entryX=0;entryY=0.5;entryDx=0;entryDy=0;exitX=0.75;exitY=0.1;exitDx=0;exitDy=0;exitPerimeter=0;" edge="1" parent="1" source="dDqPs8dIwind9jrdzAwR-2" target="h9x3qLDGoQAYXnLkS7vb-11">
          <mxGeometry width="160" relative="1" as="geometry">
            <mxPoint x="320" y="-250" as="sourcePoint" />
            <mxPoint x="370" y="-260" as="targetPoint" />
          </mxGeometry>
        </mxCell>
        <mxCell id="h9x3qLDGoQAYXnLkS7vb-36" value="" style="endArrow=open;endFill=1;endSize=12;html=1;rounded=0;fontFamily=Helvetica;fontSize=12;fontColor=default;entryX=0;entryY=0.5;entryDx=0;entryDy=0;exitX=0.5;exitY=0.5;exitDx=0;exitDy=0;exitPerimeter=0;" edge="1" parent="1" source="h9x3qLDGoQAYXnLkS7vb-22" target="h9x3qLDGoQAYXnLkS7vb-14">
          <mxGeometry width="160" relative="1" as="geometry">
            <mxPoint x="190" y="6" as="sourcePoint" />
            <mxPoint x="219" y="-20" as="targetPoint" />
          </mxGeometry>
        </mxCell>
        <mxCell id="h9x3qLDGoQAYXnLkS7vb-37" value="" style="endArrow=open;endFill=1;endSize=12;html=1;rounded=0;fontFamily=Helvetica;fontSize=12;fontColor=default;entryX=0.064;entryY=0.242;entryDx=0;entryDy=0;entryPerimeter=0;" edge="1" parent="1" target="h9x3qLDGoQAYXnLkS7vb-13">
          <mxGeometry width="160" relative="1" as="geometry">
            <mxPoint x="180" y="20" as="sourcePoint" />
            <mxPoint x="260" y="50" as="targetPoint" />
          </mxGeometry>
        </mxCell>
        <mxCell id="h9x3qLDGoQAYXnLkS7vb-38" value="" style="endArrow=open;endFill=1;endSize=12;html=1;rounded=0;fontFamily=Helvetica;fontSize=12;fontColor=default;entryX=1;entryY=0.5;entryDx=0;entryDy=0;exitX=0;exitY=0.5;exitDx=0;exitDy=0;" edge="1" parent="1" source="h9x3qLDGoQAYXnLkS7vb-12" target="h9x3qLDGoQAYXnLkS7vb-19">
          <mxGeometry width="160" relative="1" as="geometry">
            <mxPoint x="100" y="-10" as="sourcePoint" />
            <mxPoint x="129" y="-36" as="targetPoint" />
          </mxGeometry>
        </mxCell>
        <mxCell id="h9x3qLDGoQAYXnLkS7vb-39" value="" style="endArrow=open;endFill=1;endSize=12;html=1;rounded=0;fontFamily=Helvetica;fontSize=12;fontColor=default;exitX=0.027;exitY=0.665;exitDx=0;exitDy=0;exitPerimeter=0;" edge="1" parent="1" source="h9x3qLDGoQAYXnLkS7vb-12" target="h9x3qLDGoQAYXnLkS7vb-18">
          <mxGeometry width="160" relative="1" as="geometry">
            <mxPoint x="130" y="-70" as="sourcePoint" />
            <mxPoint x="110" y="-70" as="targetPoint" />
          </mxGeometry>
        </mxCell>
        <mxCell id="h9x3qLDGoQAYXnLkS7vb-40" value="" style="endArrow=open;endFill=1;endSize=12;html=1;rounded=0;fontFamily=Helvetica;fontSize=12;fontColor=default;exitX=0.011;exitY=0.342;exitDx=0;exitDy=0;exitPerimeter=0;entryX=0.947;entryY=0.786;entryDx=0;entryDy=0;entryPerimeter=0;" edge="1" parent="1" source="h9x3qLDGoQAYXnLkS7vb-12" target="h9x3qLDGoQAYXnLkS7vb-20">
          <mxGeometry width="160" relative="1" as="geometry">
            <mxPoint x="145" y="-150" as="sourcePoint" />
            <mxPoint x="100" y="-94" as="targetPoint" />
          </mxGeometry>
        </mxCell>
        <mxCell id="h9x3qLDGoQAYXnLkS7vb-41" value="" style="endArrow=open;endFill=1;endSize=12;html=1;rounded=0;fontFamily=Helvetica;fontSize=12;fontColor=default;exitX=0.25;exitY=0.1;exitDx=0;exitDy=0;exitPerimeter=0;entryX=0.965;entryY=0.748;entryDx=0;entryDy=0;entryPerimeter=0;" edge="1" parent="1" source="dDqPs8dIwind9jrdzAwR-2" target="h9x3qLDGoQAYXnLkS7vb-2">
          <mxGeometry width="160" relative="1" as="geometry">
            <mxPoint x="313" y="-224" as="sourcePoint" />
            <mxPoint x="310" y="-270" as="targetPoint" />
          </mxGeometry>
        </mxCell>
        <mxCell id="1t21e9opbjqIbp72WB-6-3" value="" style="endArrow=none;html=1;rounded=0;fontSize=12;startSize=8;endSize=8;curved=1;" edge="1" parent="1" source="1t21e9opbjqIbp72WB-6-4">
          <mxGeometry width="50" height="50" relative="1" as="geometry">
            <mxPoint x="157.5" y="65.5" as="sourcePoint" />
            <mxPoint x="202.5" y="65.5" as="targetPoint" />
          </mxGeometry>
        </mxCell>
        <mxCell id="1t21e9opbjqIbp72WB-6-6" value="" style="endArrow=none;html=1;rounded=0;fontSize=12;startSize=8;endSize=8;curved=1;" edge="1" parent="1" target="1t21e9opbjqIbp72WB-6-4">
          <mxGeometry width="50" height="50" relative="1" as="geometry">
            <mxPoint x="157.5" y="65.5" as="sourcePoint" />
            <mxPoint x="202.5" y="65.5" as="targetPoint" />
          </mxGeometry>
        </mxCell>
        <mxCell id="1t21e9opbjqIbp72WB-6-4" value="Admin" style="rounded=0;whiteSpace=wrap;html=1;" vertex="1" parent="1">
          <mxGeometry x="156.5" y="55" width="47.5" height="20" as="geometry" />
        </mxCell>
        <mxCell id="1t21e9opbjqIbp72WB-6-7" value="User" style="rounded=0;whiteSpace=wrap;html=1;" vertex="1" parent="1">
          <mxGeometry x="271.25" y="-193" width="47.5" height="20" as="geometry" />
        </mxCell>
        <mxCell id="1t21e9opbjqIbp72WB-6-8" value="&lt;span style=&quot;font-size: 18px;&quot;&gt;Cập nhật trạng thái đã/chưa giao hàng cho đơn vị vận chuyển&lt;/span&gt;" style="ellipse;whiteSpace=wrap;html=1;" vertex="1" parent="1">
          <mxGeometry x="350" y="-170" width="200" height="110" as="geometry" />
        </mxCell>
        <mxCell id="1t21e9opbjqIbp72WB-6-9" value="&lt;span style=&quot;font-size: 18px;&quot;&gt;Cập nhật vị trí đơn hàng&lt;/span&gt;" style="ellipse;whiteSpace=wrap;html=1;" vertex="1" parent="1">
          <mxGeometry x="440" y="75" width="145" height="80" as="geometry" />
        </mxCell>
        <mxCell id="1t21e9opbjqIbp72WB-6-12" value="" style="endArrow=open;endFill=1;endSize=12;html=1;rounded=0;fontSize=12;curved=1;entryX=0;entryY=0;entryDx=0;entryDy=0;exitX=0.5;exitY=0.5;exitDx=0;exitDy=0;exitPerimeter=0;" edge="1" parent="1" source="dDqPs8dIwind9jrdzAwR-2" target="1t21e9opbjqIbp72WB-6-8">
          <mxGeometry width="160" relative="1" as="geometry">
            <mxPoint x="300" y="-211.25" as="sourcePoint" />
            <mxPoint x="460" y="-211.25" as="targetPoint" />
          </mxGeometry>
        </mxCell>
        <mxCell id="1t21e9opbjqIbp72WB-6-13" value="" style="endArrow=open;endFill=1;endSize=12;html=1;rounded=0;fontSize=12;curved=1;exitX=0.406;exitY=0.041;exitDx=0;exitDy=0;exitPerimeter=0;entryX=0.615;entryY=1.011;entryDx=0;entryDy=0;entryPerimeter=0;" edge="1" parent="1" source="h9x3qLDGoQAYXnLkS7vb-10" target="1t21e9opbjqIbp72WB-6-8">
          <mxGeometry width="160" relative="1" as="geometry">
            <mxPoint x="450" y="-60" as="sourcePoint" />
            <mxPoint x="510" y="-50" as="targetPoint" />
          </mxGeometry>
        </mxCell>
        <mxCell id="1t21e9opbjqIbp72WB-6-14" value="" style="endArrow=open;endFill=1;endSize=12;html=1;rounded=0;fontSize=12;curved=1;exitX=0.5;exitY=1;exitDx=0;exitDy=0;entryX=0.465;entryY=-0.014;entryDx=0;entryDy=0;entryPerimeter=0;" edge="1" parent="1" source="h9x3qLDGoQAYXnLkS7vb-10" target="1t21e9opbjqIbp72WB-6-9">
          <mxGeometry width="160" relative="1" as="geometry">
            <mxPoint x="460" y="82" as="sourcePoint" />
            <mxPoint x="450" y="50" as="targetPoint" />
          </mxGeometry>
        </mxCell>
        <mxCell id="1t21e9opbjqIbp72WB-6-22" value="Actor" style="shape=umlActor;verticalLabelPosition=bottom;verticalAlign=top;html=1;" vertex="1" parent="1">
          <mxGeometry x="638.75" y="75" width="30" height="60" as="geometry" />
        </mxCell>
        <mxCell id="1t21e9opbjqIbp72WB-6-23" value="ĐVVC" style="rounded=0;whiteSpace=wrap;html=1;" vertex="1" parent="1">
          <mxGeometry x="630" y="140" width="47.5" height="20" as="geometry" />
        </mxCell>
        <mxCell id="1t21e9opbjqIbp72WB-6-25" value="" style="endArrow=open;endFill=1;endSize=12;html=1;rounded=0;fontSize=12;curved=1;exitX=0.5;exitY=0.5;exitDx=0;exitDy=0;exitPerimeter=0;entryX=1.005;entryY=0.4;entryDx=0;entryDy=0;entryPerimeter=0;" edge="1" parent="1" source="1t21e9opbjqIbp72WB-6-22" target="1t21e9opbjqIbp72WB-6-9">
          <mxGeometry width="160" relative="1" as="geometry">
            <mxPoint x="550" y="-38" as="sourcePoint" />
            <mxPoint x="540" y="-70" as="targetPoint" />
          </mxGeometry>
        </mxCell>
      </root>
    </mxGraphModel>
  </diagram>
</mxfile>
